<?xml version="1.0" encoding="UTF-8"?>
<svg width="139px" height="40px" viewBox="0 0 139 40" version="1.1" xmlns="http://www.w3.org/2000/svg" xmlns:xlink="http://www.w3.org/1999/xlink">
    <!-- Generator: Sketch 53.1 (72631) - https://sketchapp.com -->
    <title>Group</title>
    <desc>Created with Sketch.</desc>
    <g id="Page-2" stroke="none" stroke-width="1" fill="none" fill-rule="evenodd">
        <g id="Rose" transform="translate(-108.000000, -30.000000)" fill="#FFFFFF" fill-rule="nonzero">
            <g id="Group" transform="translate(108.000000, 30.000000)">
                <g transform="translate(48.421053, 9.122807)">
                    <path d="M0.561403509,20.9824561 C0.421052632,20.9122807 0.421052632,20.7719298 0.421052632,20.5614035 L0.421052632,10.1754386 C0.421052632,10.0350877 0.49122807,9.89473684 0.561403509,9.75438596 C0.701754386,9.61403509 0.771929825,9.61403509 0.98245614,9.61403509 L7.15789474,9.61403509 C7.92982456,9.61403509 8.63157895,9.33333333 9.19298246,8.84210526 C9.75438596,8.28070175 10.0350877,7.64912281 10.0350877,6.87719298 C10.0350877,6.10526316 9.75438596,5.47368421 9.19298246,4.9122807 C8.63157895,4.35087719 8,4.14035088 7.15789474,4.14035088 L4.63157895,4.14035088 C4.42105263,4.14035088 4.21052632,4.21052632 4.07017544,4.35087719 C3.92982456,4.49122807 3.85964912,4.70175439 3.85964912,4.84210526 L3.85964912,5.61403509 C3.85964912,5.8245614 3.78947368,5.96491228 3.64912281,6.10526316 C3.50877193,6.24561404 3.29824561,6.31578947 3.0877193,6.31578947 L1.12280702,6.31578947 C0.912280702,6.31578947 0.771929825,6.24561404 0.631578947,6.10526316 C0.49122807,5.96491228 0.421052632,5.75438596 0.421052632,5.61403509 L0.421052632,0.842105263 C0.421052632,0.701754386 0.49122807,0.561403509 0.561403509,0.421052632 C0.701754386,0.280701754 0.771929825,0.280701754 0.98245614,0.280701754 L7.15789474,0.280701754 C8.42105263,0.280701754 9.54385965,0.561403509 10.5263158,1.19298246 C11.5789474,1.75438596 12.3508772,2.59649123 12.9824561,3.57894737 C13.6140351,4.56140351 13.8947368,5.68421053 13.8947368,6.94736842 C13.8947368,8 13.6842105,8.98245614 13.1929825,9.89473684 C12.7017544,10.8070175 12.0701754,11.5789474 11.2982456,12.2105263 C11.1578947,12.2807018 11.0877193,12.4210526 11.0877193,12.4912281 C11.0877193,12.5614035 11.0877193,12.7017544 11.0877193,12.7719298 L14.5263158,20.4912281 C14.5964912,20.6315789 14.6666667,20.7719298 14.6666667,20.9122807 C14.6666667,21.122807 14.5263158,21.2631579 14.245614,21.2631579 L11.7894737,21.2631579 C11.5789474,21.2631579 11.4385965,21.2631579 11.2982456,21.1929825 C11.1578947,21.122807 11.0877193,21.0526316 11.0175439,20.9122807 L7.92982456,13.9649123 C7.85964912,13.8245614 7.78947368,13.754386 7.71929825,13.754386 C7.64912281,13.6842105 7.43859649,13.6842105 7.15789474,13.6842105 L4.63157895,13.6842105 C4.42105263,13.6842105 4.21052632,13.6842105 4.07017544,13.754386 C3.92982456,13.8245614 3.85964912,13.9649123 3.85964912,14.1754386 L3.85964912,20.7017544 C3.85964912,20.8421053 3.78947368,20.9824561 3.71929825,21.122807 C3.57894737,21.1929825 3.50877193,21.2631579 3.29824561,21.2631579 L0.98245614,21.2631579 C0.842105263,21.122807 0.701754386,21.122807 0.561403509,20.9824561 Z" id="Path"></path>
                    <path d="M25.4035088,17.8947368 C24.4210526,16.7719298 23.7192982,15.5789474 23.2280702,14.245614 L23.1578947,14.0350877 C22.8070175,12.9824561 22.5964912,11.8596491 22.5964912,10.6666667 C22.5964912,9.40350877 22.8070175,8.21052632 23.2280702,7.01754386 C23.6491228,5.8245614 24.2807018,4.77192982 25.122807,3.78947368 C26.245614,2.59649123 27.2982456,1.75438596 28.4210526,1.12280702 C29.5438596,0.49122807 30.9473684,0.140350877 32.6315789,0.0701754386 L32.7017544,0.0701754386 C34.3859649,8.44463388e-15 36,0.280701754 37.6140351,0.98245614 C38.5964912,1.40350877 39.5789474,2.03508772 40.4912281,2.87719298 C41.4035088,3.71929825 42.1052632,4.56140351 42.5263158,5.40350877 C43.4385965,7.01754386 43.9298246,8.77192982 43.9298246,10.7368421 C43.9298246,11.8596491 43.7894737,12.9122807 43.4385965,13.9649123 C43.0877193,15.0175439 42.5964912,16 41.9649123,16.9122807 C41.4736842,17.6140351 40.9122807,18.245614 40.3508772,18.7368421 C39.7894737,19.2280702 39.0175439,19.7192982 38.1754386,20.2105263 C36.6315789,20.9824561 35.0175439,21.4035088 33.2631579,21.4035088 C31.7894737,21.4035088 30.3157895,21.122807 28.9122807,20.4912281 C27.5789474,19.8596491 26.3859649,19.0175439 25.4035088,17.8947368 Z M38.3859649,15.2280702 C38.9473684,14.5964912 39.2982456,14.0350877 39.5789474,13.4736842 C40,12.5614035 40.1403509,11.6491228 40.1403509,10.6666667 C40.1403509,9.33333333 39.7894737,8.14035088 39.0877193,7.01754386 C38.3859649,5.89473684 37.4035088,5.05263158 36.1403509,4.49122807 C35.2280702,4.07017544 34.3157895,3.92982456 33.3333333,3.92982456 C32.4912281,3.92982456 31.6491228,4.07017544 30.8070175,4.42105263 C30.0350877,4.77192982 29.2631579,5.19298246 28.6315789,5.8245614 L28.0701754,6.31578947 C27.5087719,6.94736842 27.1578947,7.64912281 26.877193,8.42105263 C26.5964912,9.19298246 26.4561404,9.96491228 26.4561404,10.7368421 C26.4561404,11.7192982 26.6666667,12.7017544 27.0877193,13.6140351 C27.5087719,14.5263158 28.1403509,15.2982456 28.9122807,15.9298246 C30.1754386,16.9824561 31.6491228,17.5438596 33.3333333,17.5438596 C34.4561404,17.5438596 35.4385965,17.3333333 36.4210526,16.8421053 C37.1929825,16.4210526 37.8245614,15.8596491 38.3859649,15.2280702 Z" id="Shape"></path>
                    <path d="M54.5964912,20.3508772 C52.9824561,19.8596491 51.8596491,19.2982456 51.2280702,18.7368421 C51.0877193,18.5964912 51.0175439,18.4561404 51.0175439,18.3157895 C51.0175439,18.1052632 51.0877193,17.8947368 51.2280702,17.5438596 C51.3684211,17.2631579 51.6491228,16.8421053 52,16.2807018 C52.1403509,16.0701754 52.2807018,16 52.4912281,16 C52.5614035,16 52.6315789,16 52.7719298,16.0701754 C54.1754386,16.7719298 55.3684211,17.2631579 56.2807018,17.4035088 C57.1929825,17.6140351 58.1754386,17.6842105 59.2280702,17.6842105 C60.2105263,17.6842105 61.0526316,17.5438596 61.6140351,17.1929825 C62.1754386,16.8421053 62.5263158,16.3508772 62.5263158,15.7894737 C62.5263158,15.2982456 62.3157895,14.8070175 61.8947368,14.245614 C61.6140351,13.8947368 61.1929825,13.6140351 60.6315789,13.4035088 C60.0701754,13.1929825 59.3684211,12.9122807 58.5263158,12.7017544 C58.4561404,12.7017544 58.1754386,12.6315789 57.754386,12.4912281 C56.1403509,12 54.877193,11.4385965 54.0350877,10.8070175 C53.122807,10.1754386 52.5614035,9.33333333 52.2807018,8.28070175 C52.0701754,7.57894737 51.9298246,6.94736842 51.9298246,6.38596491 C51.9298246,5.40350877 52.2105263,4.42105263 52.7017544,3.57894737 C53.2631579,2.73684211 54.0350877,2.03508772 55.0175439,1.47368421 C56,0.912280702 57.1929825,0.561403509 58.5964912,0.421052632 C58.8070175,0.421052632 59.0877193,0.421052632 59.4385965,0.421052632 C60.9122807,0.421052632 62.4561404,0.701754386 63.8596491,1.26315789 C65.4035088,2.03508772 66.1052632,2.66666667 65.8947368,3.22807018 C65.754386,3.50877193 65.5438596,3.92982456 65.1929825,4.35087719 C64.8421053,4.77192982 64.6315789,5.12280702 64.4912281,5.26315789 C64.4210526,5.33333333 64.3508772,5.40350877 64.2105263,5.40350877 C64,5.40350877 63.6491228,5.26315789 63.2280702,5.05263158 C62.5964912,4.77192982 62.0350877,4.56140351 61.6842105,4.49122807 C60.7719298,4.28070175 60,4.21052632 59.4385965,4.21052632 C58.8070175,4.21052632 58.1754386,4.35087719 57.4736842,4.56140351 C56.9824561,4.84210526 56.5614035,5.12280702 56.2807018,5.47368421 C56,5.8245614 55.8596491,6.1754386 55.8596491,6.52631579 C55.8596491,7.0877193 56.1403509,7.57894737 56.7017544,8 C57.3333333,8.42105263 57.9649123,8.77192982 58.6666667,9.12280702 C59.3684211,9.40350877 60.1403509,9.75438596 61.0526316,10.0350877 C62.0350877,10.3859649 62.8070175,10.7368421 63.3684211,11.0175439 C63.9298246,11.2982456 64.4210526,11.7192982 64.8421053,12.1403509 C65.2631579,12.4912281 65.5438596,13.0526316 65.8245614,13.754386 C66.1052632,14.4561404 66.245614,15.0877193 66.245614,15.7192982 C66.245614,16.8421053 65.9649123,17.8245614 65.3333333,18.5964912 C64.7719298,19.4385965 63.9298246,20.0701754 62.877193,20.4912281 C61.8245614,20.9122807 60.6315789,21.1929825 59.2280702,21.1929825 C57.754386,21.0526316 56.2105263,20.8421053 54.5964912,20.3508772 Z" id="Path"></path>
                    <path d="M75.4385965,20.9122807 C75.2982456,20.7719298 75.2982456,20.7017544 75.2982456,20.5614035 L75.2982456,0.912280702 C75.2982456,0.771929825 75.3684211,0.631578947 75.4385965,0.49122807 C75.5789474,0.421052632 75.6491228,0.350877193 75.7894737,0.350877193 L89.122807,0.350877193 C89.2631579,0.350877193 89.4035088,0.421052632 89.5438596,0.49122807 C89.6140351,0.561403509 89.6842105,0.701754386 89.6842105,0.912280702 L89.6842105,3.43859649 C89.6842105,3.57894737 89.6140351,3.71929825 89.5438596,3.78947368 C89.4736842,3.92982456 89.3333333,3.92982456 89.122807,3.92982456 L79.5087719,3.92982456 C79.3684211,3.92982456 79.2280702,4 79.1578947,4.07017544 C79.0175439,4.14035088 79.0175439,4.28070175 79.0175439,4.49122807 L79.0175439,8.84210526 L79.0175439,8.9122807 C79.0175439,9.12280702 79.0877193,9.19298246 79.1578947,9.26315789 C79.2280702,9.33333333 79.4385965,9.33333333 79.7192982,9.33333333 L87.1578947,9.33333333 C87.2982456,9.33333333 87.4385965,9.40350877 87.5087719,9.47368421 C87.5789474,9.54385965 87.6491228,9.68421053 87.6491228,9.8245614 L87.6491228,12.3508772 C87.6491228,12.4912281 87.5789474,12.6315789 87.5087719,12.7017544 C87.4385965,12.7719298 87.2982456,12.8421053 87.1578947,12.8421053 L79.7192982,12.8421053 C79.4385965,12.8421053 79.2982456,12.9122807 79.2280702,13.0526316 C79.1578947,13.1929825 79.0877193,13.3333333 79.0877193,13.5438596 L79.0877193,16.7017544 C79.0877193,16.9122807 79.1578947,17.0526316 79.2280702,17.1929825 C79.3684211,17.3333333 79.5789474,17.4035088 79.9298246,17.4035088 L89.4736842,17.4035088 C89.6140351,17.4035088 89.754386,17.4736842 89.8245614,17.5438596 C89.9649123,17.6842105 89.9649123,17.754386 89.9649123,17.9649123 L89.9649123,20.4912281 C89.9649123,20.6315789 89.8947368,20.7719298 89.8245614,20.8421053 C89.754386,20.9824561 89.6140351,20.9824561 89.4035088,20.9824561 L75.7894737,20.9824561 C75.6491228,21.0526316 75.5789474,20.9824561 75.4385965,20.9122807 Z" id="Path"></path>
                </g>
                <g id="Path">
                    <path d="M10.245614,32.4912281 L4.28070175,24.6315789 C3.71929825,23.9298246 3.43859649,23.0877193 3.43859649,22.1754386 C3.50877193,20.9824561 4.07017544,19.8596491 4.98245614,19.2280702 L16.3508772,11.0877193 C17.5438596,10.245614 18.9473684,9.96491228 20.3508772,10.245614 C21.754386,10.5263158 23.0175439,11.3684211 23.7192982,12.5614035 L27.0877193,17.8947368 C27.8596491,19.0877193 27.9298246,20.5614035 27.3684211,21.8947368 L25.1929825,26.8070175 C24.4210526,28.5614035 22.6666667,29.6140351 20.7719298,29.4736842 L17.1929825,29.2631579 C16.3508772,29.1929825 15.5087719,28.7719298 14.877193,28.1403509 L12.9122807,25.9649123 C12.2105263,25.1929825 11.9298246,24.2105263 12,23.1578947 C12.0701754,22.1754386 12.6315789,21.1929825 13.4736842,20.6315789 L15.2982456,19.2982456 C16.6315789,18.3157895 18.5263158,18.4561404 19.7192982,19.7192982 L20.4210526,20.4912281 C20.8421053,20.9122807 20.7719298,21.6842105 20.3508772,22.0350877 C19.8596491,22.4561404 19.1578947,22.3859649 18.8070175,21.9649123 L18.1052632,21.1929825 C17.754386,20.7719298 17.122807,20.7017544 16.7017544,21.0526316 L14.877193,22.3859649 C14.5263158,22.5964912 14.3859649,22.9473684 14.3157895,23.3684211 C14.245614,23.7894737 14.3859649,24.1403509 14.6666667,24.4210526 L16.6315789,26.5964912 C16.8421053,26.8070175 17.122807,26.9473684 17.4035088,26.9473684 L20.9824561,27.1578947 C21.8947368,27.2280702 22.8070175,26.6666667 23.1578947,25.8245614 L25.3333333,20.9122807 C25.6140351,20.2807018 25.5438596,19.5789474 25.1929825,19.0175439 L21.8947368,13.754386 C21.5438596,13.122807 20.9824561,12.6315789 20.2807018,12.4210526 C19.3684211,12.1403509 18.3859649,12.2807018 17.6140351,12.8421053 L6.31578947,20.9824561 C5.96491228,21.1929825 5.75438596,21.6140351 5.68421053,22.0350877 C5.61403509,22.4561404 5.75438596,22.877193 5.96491228,23.2280702 L12,31.2280702 C12.4912281,31.8596491 13.122807,32.3508772 13.8947368,32.6315789 L23.7894737,36.2105263 C24.2105263,36.3508772 24.7017544,36.3508772 25.0526316,36.0701754 L25.1929825,36 C25.6842105,35.7192982 26.0350877,35.2982456 26.245614,34.7368421 L31.7894737,20 C32.2807018,18.8070175 32.1403509,17.4035088 31.5087719,16.2807018 L25.8245614,4.98245614 C25.2631579,3.92982456 24.2807018,3.15789474 23.1578947,2.80701754 C21.8245614,2.38596491 20.4210526,2.59649123 19.2280702,3.43859649 L1.12280702,16.3508772 C0.701754386,16.6315789 0.49122807,17.0526316 0.49122807,17.5438596 L0.49122807,27.7894737 C0.49122807,29.122807 1.19298246,30.3157895 2.31578947,30.9473684 L16.2105263,38.9473684 C17.3333333,39.5789474 18.7368421,39.5789474 19.8596491,38.9473684 L20.5614035,38.5263158 C21.122807,38.1754386 21.0526316,37.4035088 20.4210526,37.1929825 L13.122807,34.5263158 C12,34.1754386 10.9473684,33.4736842 10.245614,32.4912281 Z"></path>
                    <path d="M19.9298246,0.701754386 L19.9298246,0.701754386 C18.7368421,1.11022302e-16 17.2631579,1.11022302e-16 16.0701754,0.701754386 L2.45614035,8.56140351 C1.26315789,9.26315789 0.49122807,10.5263158 0.49122807,11.9298246 L0.49122807,13.6140351 C0.49122807,13.8245614 0.701754386,13.8947368 0.842105263,13.8245614 L17.4736842,2.1754386 C18.245614,1.68421053 19.0175439,1.33333333 19.9298246,1.12280702 C20.0701754,1.05263158 20.1403509,0.842105263 19.9298246,0.701754386 Z"></path>
                    <path d="M33.3333333,8.42105263 L29.8947368,6.45614035 C29.2631579,6.10526316 28.5614035,6.80701754 28.9122807,7.43859649 L33.1929825,14.8070175 C34.3157895,16.7017544 34.4561404,19.0175439 33.6842105,21.0526316 L29.6140351,31.8596491 C29.4035088,32.4912281 30.0350877,33.0526316 30.5964912,32.7017544 L33.2631579,31.1578947 C34.5964912,30.3859649 35.4385965,28.9122807 35.4385965,27.3684211 L35.4385965,12.1403509 C35.5789474,10.6666667 34.7368421,9.26315789 33.3333333,8.42105263 Z"></path>
                </g>
            </g>
        </g>
    </g>
</svg>