<?xml version="1.0" encoding="UTF-8"?>
<svg width="1171px" height="569px" viewBox="0 0 1171 569" version="1.1" xmlns="http://www.w3.org/2000/svg" xmlns:xlink="http://www.w3.org/1999/xlink">
    <!-- Generator: Sketch 53.1 (72631) - https://sketchapp.com -->
    <title>Group 18</title>
    <desc>Created with Sketch.</desc>
    <defs>
        <path d="M100.081321,82.5035215 L98.2517709,84.7724388 C95.2504788,82.3293411 92.3425252,79.5368382 89.5275573,76.3956829 C85.3445057,71.7279156 85.0512973,67.3025305 88.4872795,64.426487 C91.3054204,62.0675993 96.3287308,61.2086811 101.406979,62.070303 C106.753611,62.9774613 109.735027,63.0328819 110.768403,62.5215885 C110.897333,62.4577968 110.875589,62.4906922 110.880637,62.4236248 C110.896324,62.2151904 110.840169,61.9217479 110.645368,61.199327 L110.641743,61.1858817 C110.086007,59.1247647 110.06547,58.091995 111.268715,57.0034532 L113.213434,59.173518 C113.208043,59.1783951 113.211268,59.1695009 113.213588,59.2861585 C113.218112,59.5136721 113.275199,59.7852862 113.446963,60.4223278 L113.450574,60.4357185 C113.737975,61.5015517 113.828906,61.9767159 113.778698,62.6438145 C113.696761,63.7324977 113.112146,64.6169298 112.052375,65.1412826 C110.270429,66.022953 106.877156,65.9598766 100.923041,64.9496471 C96.6075008,64.2174331 92.4228375,64.9329541 90.3475479,66.6700479 C88.3377274,68.3523416 88.5059743,70.8916866 91.6873859,74.4417477 C94.4027699,77.4717798 97.200866,80.1587868 100.081321,82.5035215 Z" id="path-1"></path>
        <filter x="-5.4%" y="-5.4%" width="110.8%" height="110.8%" filterUnits="objectBoundingBox" id="filter-2">
            <feOffset dx="0" dy="-3" in="SourceAlpha" result="shadowOffsetInner1"></feOffset>
            <feComposite in="shadowOffsetInner1" in2="SourceAlpha" operator="arithmetic" k2="-1" k3="1" result="shadowInnerInner1"></feComposite>
            <feColorMatrix values="0 0 0 0 0   0 0 0 0 0   0 0 0 0 0  0 0 0 0.0619055707 0" type="matrix" in="shadowInnerInner1"></feColorMatrix>
        </filter>
        <filter x="-77.7%" y="-71.8%" width="256.5%" height="242.6%" filterUnits="objectBoundingBox" id="filter-3">
            <feOffset dx="0" dy="12" in="SourceAlpha" result="shadowOffsetOuter1"></feOffset>
            <feGaussianBlur stdDeviation="12.5" in="shadowOffsetOuter1" result="shadowBlurOuter1"></feGaussianBlur>
            <feColorMatrix values="0 0 0 0 0.633491848   0 0 0 0 0.501361479   0 0 0 0 0.633491848  0 0 0 0.249180507 0" type="matrix" in="shadowBlurOuter1" result="shadowMatrixOuter1"></feColorMatrix>
            <feMerge>
                <feMergeNode in="shadowMatrixOuter1"></feMergeNode>
                <feMergeNode in="SourceGraphic"></feMergeNode>
            </feMerge>
        </filter>
        <filter x="-70.8%" y="-51.8%" width="244.6%" height="204.3%" filterUnits="objectBoundingBox" id="filter-4">
            <feOffset dx="0" dy="12" in="SourceAlpha" result="shadowOffsetOuter1"></feOffset>
            <feGaussianBlur stdDeviation="12.5" in="shadowOffsetOuter1" result="shadowBlurOuter1"></feGaussianBlur>
            <feColorMatrix values="0 0 0 0 0.633491848   0 0 0 0 0.501361479   0 0 0 0 0.633491848  0 0 0 0.249180507 0" type="matrix" in="shadowBlurOuter1" result="shadowMatrixOuter1"></feColorMatrix>
            <feMerge>
                <feMergeNode in="shadowMatrixOuter1"></feMergeNode>
                <feMergeNode in="SourceGraphic"></feMergeNode>
            </feMerge>
        </filter>
        <polygon id="path-5" points="17 90.7734192 23.8513342 107.246069 51.9404294 91.448356 58.475217 110.657895 101 53.6578947 35.6020944 57.1395433 45.3848595 73.8534091"></polygon>
        <filter x="-3.3%" y="-4.6%" width="107.5%" height="116.2%" filterUnits="objectBoundingBox" id="filter-6">
            <feMorphology radius="1" operator="dilate" in="SourceAlpha" result="shadowSpreadOuter1"></feMorphology>
            <feOffset dx="0" dy="3" in="shadowSpreadOuter1" result="shadowOffsetOuter1"></feOffset>
            <feComposite in="shadowOffsetOuter1" in2="SourceAlpha" operator="out" result="shadowOffsetOuter1"></feComposite>
            <feColorMatrix values="0 0 0 0 0.223529412   0 0 0 0 0.266666667   0 0 0 0 0.356862745  0 0 0 1 0" type="matrix" in="shadowOffsetOuter1"></feColorMatrix>
        </filter>
        <filter x="-58.5%" y="-84.3%" width="216.1%" height="267.4%" filterUnits="objectBoundingBox" id="filter-7">
            <feOffset dx="0" dy="12" in="SourceAlpha" result="shadowOffsetOuter1"></feOffset>
            <feGaussianBlur stdDeviation="12.5" in="shadowOffsetOuter1" result="shadowBlurOuter1"></feGaussianBlur>
            <feColorMatrix values="0 0 0 0 0.633491848   0 0 0 0 0.501361479   0 0 0 0 0.633491848  0 0 0 0.249180507 0" type="matrix" in="shadowBlurOuter1" result="shadowMatrixOuter1"></feColorMatrix>
            <feMerge>
                <feMergeNode in="shadowMatrixOuter1"></feMergeNode>
                <feMergeNode in="SourceGraphic"></feMergeNode>
            </feMerge>
        </filter>
    </defs>
    <g id="Page-2" stroke="none" stroke-width="1" fill="none" fill-rule="evenodd">
        <g id="Rose" transform="translate(-152.000000, -1254.000000)">
            <g id="Group-7" transform="translate(-81.000000, 965.000000)">
                <g id="Group-5">
                    <g id="Group-18" transform="translate(196.000000, 300.000000)">
                        <g id="Group-16">
                            <path d="M1022.07384,389.216045 C981.99341,195.558879 810.455285,50 604.920062,50 C399.781837,50 228.509504,194.997119 188,388.094419" id="Oval" stroke="#F0C8B4" stroke-width="2" stroke-dasharray="10"></path>
                            <g id="Group-5-Copy" transform="translate(762.000000, 193.000000)">
                                <g id="Group-16-Copy" transform="translate(81.000000, 49.000000)">
                                    <path d="M3.74801486,132.455871 C25.2786284,112.708355 51.406917,101.957849 82.1328806,100.204354 C128.221826,97.5741107 140.054177,82.4115688 158.801254,82.4323975" id="Path-14" stroke="#DED01B" stroke-width="9.79999983" transform="translate(81.274634, 107.444134) rotate(14.000000) translate(-81.274634, -107.444134) "></path>
                                    <path d="M64.9536999,174.184613 C63.5269199,176.349073 61.5038176,177.988204 58.1333546,179.184954 C55.6999269,180.048992 53.6735756,180.730245 52.0543006,181.228713 L52.0543001,181.228711 C49.3972419,182.046644 47.5904284,184.509527 47.6079449,187.289574 C47.6666655,196.60913 46.7346102,202.48865 44.8117791,204.928133 C41.4368866,209.209837 42.2974281,213.616501 45.8881568,211.413169 C49.4788855,209.209837 55.0623978,196.404224 58.1333546,192.289135 C59.5607704,190.376394 64.6424262,185.65837 70.7655493,180.595866 C77.8157743,174.766848 67.4207172,170.442086 64.9536999,174.184613 Z" id="Path-9" fill="#BE6F72"></path>
                                    <path d="M148.937675,38.9376724 C146.67369,30.6358382 140.545827,28.5603796 130.554087,32.7112967 C115.566477,38.9376724 109.838848,66.3887751 87.3913839,54.4711294 C72.4264081,46.5260323 70.1985127,48.6021478 80.7076978,60.6994758 C67.5576719,53.757302 60.982659,53.757302 60.982659,60.6994758 C60.982659,67.6416496 67.5576719,72.4253747 80.7076978,75.0506513 C69.8301493,75.7526557 64.1279681,78.8395089 63.6011542,84.311211 C62.8109334,92.5187641 72.8664427,97.4313428 82.6172396,94.9750534 C89.1177709,93.3375272 89.8125151,95.8280775 84.7014724,102.446704 C92.785831,114.537033 108.070036,114.537033 130.554087,102.446704 C153.038138,90.3563754 157.501667,78.2986086 143.944674,66.2734037 L157.33526,66.2734037 L148.937675,38.9376724 Z" id="Path-11" fill="#39445B"></path>
                                    <g id="Path-14" fill-rule="nonzero" transform="translate(99.960092, 70.887946) rotate(-48.000000) translate(-99.960092, -70.887946) ">
                                        <use fill="#F1606F" xlink:href="#path-1"></use>
                                        <use fill="black" fill-opacity="1" filter="url(#filter-2)" xlink:href="#path-1"></use>
                                    </g>
                                    <path d="M167.43594,62.4971098 C172.72335,52.3353851 175.581806,45.1621101 176.011308,40.9772848 C176.655562,34.7000469 176.808853,18.1154833 177.393899,17.2603021 C177.626413,16.9204273 178.252944,15.3942968 178.017219,14.0142492 C177.659821,11.9218687 176.060615,9.80346821 173.954475,9.80346821 C170.459212,9.80346821 169.244548,13.0939419 170.534399,14.7495314 C171.824249,16.4051208 172.851236,17.3069707 172.69992,20.6440867 C172.548604,23.9812028 170.521512,39.6923427 169.076999,40.9772848 C168.113991,41.8339129 166.232833,45.3725961 163.433526,51.5933346 L167.43594,62.4971098 Z" id="Path-4" fill="#BE6F72"></path>
                                    <path d="M167.649261,62.4971098 C167.100292,56.7442239 167.100292,52.6087659 167.649261,50.0907357 C168.36841,46.7921207 172.303355,42.6350049 172.514257,40.6548417 C173.192848,34.2835486 174.737126,28.0507181 175.530529,22.1130367 C176.323932,16.1753554 172.100672,15.4143943 172.514257,16.1753554 C173.002568,17.0738049 173.280096,18.1831037 173.193803,20.0169804 C173.034422,23.4040983 170.899289,39.3506466 169.377786,40.6548417 C168.363451,41.5243051 166.382031,45.1160104 163.433526,51.4299574 L167.649261,62.4971098 Z" id="Path-4" fill="#AB6063"></path>
                                    <path d="M162.738147,51.4682081 L158.554913,56.0647583 C161.128233,60.7109069 163.194491,63.186995 164.753689,63.4930226 C166.312887,63.7990503 167.092486,63.7990503 167.092486,63.4930226 L167.092486,61.8476547 L162.738147,51.4682081 Z" id="Path-12" fill="#D14E5C"></path>
                                    <path d="M134.67799,113.965318 C128.752933,120.771201 120.852956,128.24825 110.97806,136.396464 C101.103163,144.544679 96.2528815,150.17015 96.4272143,153.272875 C91.3509843,150.112411 85.0564591,152.682767 77.5436387,160.983944 C70.0308183,169.28512 65.7301449,174.160425 64.6416185,175.609859 L66.2103286,186.265896 L106.313618,164.34519 C123.208566,158.085052 134.543661,152.741695 140.318903,148.315118 C146.094145,143.88854 152.985917,136.589625 160.99422,126.418371 L134.67799,113.965318 Z" id="Path-10" fill="#7FA1D3"></path>
                                    <path d="M150.017341,54.342859 C152.107206,56.517773 152.629672,59.1652226 151.58474,62.2852079 C150.017341,66.9651858 157.351571,71.0751445 161.449308,71.0751445 C165.547045,71.0751445 168.775276,67.2152489 166.133707,64.0199762 C163.492138,60.8247035 159.833604,59.8913997 159.833604,56.5777428 C159.833604,53.2640859 161.112294,50.2427746 159.833604,50.2427746 C158.981143,50.2427746 155.709056,51.6094694 150.017341,54.342859 Z" id="Path-5" fill="#BE6F72"></path>
                                    <path d="M150.017341,54.1538233 C152.576031,54.3161924 154.097571,54.6502506 154.581962,55.1559979 C157.966455,58.6897142 161.557978,60.5057017 160.920024,59.9463558 C159.755262,58.9251133 158.890129,57.9024018 158.890129,56.2856671 C158.890129,53.1247874 160.04592,50.2427746 158.890129,50.2427746 C158.119602,50.2427746 155.162006,51.5464575 150.017341,54.1538233 Z" id="Path-5" fill="#AB6063"></path>
                                    <path d="M140.53097,58.8208092 C138.313712,60.7344315 137.048426,62.8565913 136.73511,65.1872887 C136.421795,67.5179862 136.658107,70.2975604 137.444047,73.5260116 C140.244999,72.3406791 141.780488,71.6024199 142.050512,71.311234 C142.455549,70.874455 144.166478,67.4818083 143.888754,65.1872887 C143.703604,63.657609 142.584343,61.5354492 140.53097,58.8208092 Z" id="Path-13" fill="#D14E5C"></path>
                                    <path d="M147.597903,39.2138728 C152.527517,41.3174562 155.788497,43.2064542 157.380844,44.880867 C159.769365,47.3924861 160.518623,49.20185 158.949734,51.5596023 C158.003833,52.9811175 153.100166,53.9659313 150.179209,53.9173547 C148.25541,53.8853613 147.89707,52.972656 147.597903,52.972656 C146.844505,52.972656 141.93145,52.7665733 142.80253,50.0880354 C143.38325,48.3023436 144.340471,48.0013148 145.674195,49.1849493 C144.499746,47.8429819 143.912521,46.4082878 143.912521,44.880867 C143.912521,43.3534461 145.140982,41.4644481 147.597903,39.2138728 Z" id="Path-6" fill="#BE6F72"></path>
                                    <path d="M148.797688,62.8671894 C148.100447,61.5407537 145.013116,60.5467351 139.535697,59.8851337 C131.319569,58.8927316 123.248863,55.9840769 121.968543,55.1338673 C120.688223,54.2836577 121.253297,52.154875 112.564691,47.8905822 C106.772286,45.0477203 101.213183,41.7938876 95.8873801,38.1290842 C96.1702977,34.7674982 94.5349082,33.0867052 90.9812115,33.0867052 C85.6506664,33.0867052 84.1560694,33.3772224 84.1560694,35.7531533 C84.1560694,37.3371072 87.006567,39.2661496 92.7075624,41.5402803 C99.5054661,48.0926833 103.359485,52.3410735 104.269618,54.2854507 C105.179751,56.229828 109.248838,58.829429 116.476879,62.0842539 C118.358084,63.9896818 121.570261,65.8804251 126.113409,67.7564837 C130.656556,69.6325424 137.268674,71.1472405 145.949762,72.300578 L148.797688,62.8671894 Z" id="Path-7" fill="#BE6F72"></path>
                                    <path d="M148.797688,62.6507012 C148.100447,61.2938249 145.013116,60.2769945 139.535697,59.6002099 C136.898236,59.2743278 140.028331,61.6090197 139.535697,62.6507012 C138.493696,64.8540305 136.380056,67.02903 135.510732,66.4384982 C134.230412,65.568777 132.982738,67.012856 124.294132,62.6507012 C118.501727,59.7425981 112.020787,55.9778717 104.851312,51.3565222 C99.1582749,42.5817813 94.5349082,38.1944108 90.9812115,38.1944108 C85.6506664,38.1944108 84.1560694,32.4839648 84.1560694,34.9144213 C84.1560694,36.5347256 87.006567,38.5080378 92.7075624,40.8343579 C99.5054661,47.5371329 103.359485,51.88302 104.269618,53.872019 C105.179751,55.861018 109.248838,58.5202777 116.476879,61.849798 C118.358084,63.7989538 121.570261,65.7330881 126.113409,67.6522007 C130.656556,69.5713133 137.268674,71.1207724 145.949762,72.300578 L148.797688,62.6507012 Z" id="Path-7" fill="#AB6063"></path>
                                    <path d="M139.533756,59.3447727 C141.87261,61.8835045 142.457323,64.2260295 141.287896,66.3723476 C140.118469,68.5186657 138.551719,70.7224841 136.587647,72.9838027 L140.623993,72.9838027 C145.047664,77.3754995 146.878447,81.4502934 146.11634,85.2081843 C144.973179,90.8450207 131.623365,98.1167604 130.06328,105.067627 C129.023223,109.701538 129.023223,111.251051 130.06328,109.716164 C132.919478,105.307419 137.153667,103.103047 142.765847,103.103047 C148.378027,103.103047 155.876709,103.757907 165.261893,105.067627 C166.593832,102.219618 167.259802,98.9991682 167.259802,95.4062791 C167.259802,90.0169453 168.055933,79.5817388 169.50527,77.8557903 C170.954606,76.1298419 173.983129,76.2089122 172.99716,70.2555463 C172.339848,66.2866357 168.224843,62.5892944 160.652144,59.1635226 C163.408672,61.3685505 164.856681,63.0564589 164.996171,64.2272479 C165.205405,65.9834314 164.539224,67.4176882 161.824805,67.4176882 C159.110386,67.4176882 153.944992,65.7825005 152.985301,63.8456168 C152.025611,61.9087331 152.838168,58.3472667 147.802008,58.3472667 C144.444567,58.3472667 141.688483,58.0966364 139.533756,57.5953757 L139.533756,59.3447727 Z" id="Path-8" fill="#F1606F"></path>
                                    <path d="M166.265724,105.936654 C152.92272,101.710983 144.220693,100.654565 140.159642,102.767401 C134.068066,105.936654 128.063593,112.101073 128.063593,117.783077 C128.063593,123.465081 127.940714,136.103642 156.424684,133.14763 C175.413997,131.176955 185.760652,129.829923 187.464647,129.106534 C177.065859,131.139667 170.398361,135.901588 167.462154,143.392296 C163.975151,152.288169 163.774626,158.144583 159.266571,161.776121 C158.08066,162.73145 159.495955,172.052747 164.160459,168.167229 C171.7171,161.872568 181.950112,154.226186 188.694127,150.867624 C199.601034,145.435916 209.535613,139.505352 210.824594,134.305943 C212.113575,129.106534 206.288966,120.814598 193.663852,115.747148 C185.24711,112.368848 175.386109,110.369741 164.08085,109.749826 L166.265724,105.936654 Z" id="Path-9" fill="#8DB2E8"></path>
                                    <path d="M161.306301,159.47941 C159.879521,161.643871 157.856419,163.283002 154.485956,164.479752 C152.052528,165.34379 150.026177,166.025042 148.406902,166.52351 L148.406901,166.523509 C145.749843,167.341442 143.94303,169.804324 143.960546,172.584372 C144.019267,181.903928 143.087211,187.783447 141.16438,190.222931 C137.789488,194.504634 138.650029,198.911299 142.240758,196.707967 C145.831487,194.504634 151.414999,181.699022 154.485956,177.583932 C155.913372,175.671192 160.995027,170.953168 167.11815,165.890663 C174.168375,160.061646 163.773318,155.736884 161.306301,159.47941 Z" id="Path-9" fill="#BE6F72"></path>
                                    <path d="M12.1965318,156.855491 C32.664961,131.020741 59.4725879,118.103366 92.6194124,118.103366 C142.339649,118.103366 150.729901,100.485549 169.531792,100.485549" id="Path-14" stroke="#F8E71C" stroke-width="9.79999983"></path>
                                    <g id="Group-17" transform="translate(81.716763, 0.000000)" stroke="#BE6F72" stroke-linecap="round" stroke-linejoin="round">
                                        <path d="M90.39048,14.2615897 C88.5982024,12.5382883 86.5059246,11.6766375 84.1136466,11.6766375" id="Path-16" stroke-width="4.19999993"></path>
                                        <path d="M86.1748496,1.59551225 C87.287506,4.11509385 87.8890325,9.02700526 87.8813226,11.1274346" id="Path-17" stroke-width="4.19999993" transform="translate(87.028123, 6.361473) rotate(-23.000000) translate(-87.028123, -6.361473) "></path>
                                        <path d="M88.2131489,0.35396663 C89.3270929,2.87620217 89.9322074,7.79199324 89.9262139,9.89386284" id="Path-17" stroke-width="4.19999993" transform="translate(89.069703, 5.123915) rotate(-17.000000) translate(-89.069703, -5.123915) "></path>
                                        <path d="M90.2418996,0.347310118 C91.3620592,2.87497155 91.9806518,7.79683025 91.9806518,9.90053225" id="Path-17" stroke-width="2.79999995"></path>
                                        <path d="M91.8751743,1.99739883 C92.9953339,4.52506026 93.6139265,9.44691896 93.6139265,11.550621" id="Path-17" stroke-width="2.79999995"></path>
                                        <path d="M9.09977216,40.4937541 C5.74395878,39.7740312 3.7531045,38.0837613 3.12720932,35.4229443 C2.50131414,32.7621274 2.21742281,30.4181114 2.27553534,28.3908964" id="Path-18" stroke-width="2.79999995" transform="translate(5.683951, 34.442325) rotate(-21.000000) translate(-5.683951, -34.442325) "></path>
                                        <path d="M9.52419982,38.4506048 C6.17032437,37.7183722 4.17631305,36.0190105 3.54216584,33.3525199 C2.90801863,30.6860293 2.61650774,28.3379365 2.66763316,26.3082414" id="Path-18" stroke-width="4.19999993"></path>
                                        <path d="M9.93251849,37.2130383 C6.57864305,36.4808056 4.58463172,34.781444 3.95048451,32.1149534 C3.31633731,29.4484628 3.31633731,27.1003699 3.95048451,25.0706749" id="Path-18" stroke-width="4.19999993"></path>
                                        <path d="M11.395919,33.430641 C8.58635283,35.2346086 6.8623172,34.8031752 6.22381209,32.1363408 C5.58530699,29.4695064 5.6056268,27.1180511 6.28477153,25.0819748" id="Path-18" stroke-width="4.19999993" transform="translate(8.577811, 29.802233) rotate(9.000000) translate(-8.577811, -29.802233) "></path>
                                        <path d="M9.52419982,28.7833745 C9.856155,30.6246498 10.6575999,32.1483761 11.9285346,33.3545532 C13.1994693,34.5607304 13.1994693,35.8454573 11.9285346,37.2087337" id="Path-19" stroke-width="4.89999992"></path>
                                    </g>
                                </g>
                                <g id="Group-10-Copy" transform="translate(186.237919, 190.829868) rotate(33.000000) translate(-186.237919, -190.829868) translate(58.737919, 46.329868)">
                                    <path d="M170.781437,167.524179 C167.584723,169.32512 165.986365,171.991794 165.986365,175.524203 C165.986365,179.056612 164.341123,180.849536 161.050638,180.902977" id="Path-15" stroke="#4A90E2" stroke-width="3"></path>
                                    <path d="M219.894062,133.686218 C216.584186,135.469886 214.927927,138.108534 214.925284,141.602162 C214.922642,145.095791 213.218511,146.870318 209.812892,146.925743" id="Path-15" stroke="#F1606F" stroke-width="3" transform="translate(214.853477, 140.305981) rotate(22.000000) translate(-214.853477, -140.305981) "></path>
                                    <path d="M135.271919,109.421985 C132.075204,111.222926 130.476847,113.889601 130.476847,117.422009 C130.476847,120.954418 128.831605,122.747342 125.54112,122.800783" id="Path-15" stroke="#6058E5" stroke-width="3"></path>
                                    <path d="M111.765635,256.072643 C108.455759,257.85631 106.799499,260.494958 106.796857,263.988586 C106.794215,267.482215 105.090084,269.256742 101.684465,269.312167" id="Path-15" stroke="#F5A623" stroke-width="3" transform="translate(106.725050, 262.692405) rotate(22.000000) translate(-106.725050, -262.692405) "></path>
                                    <path d="M13.552917,1.43068832 C10.250209,3.21075569 8.60059231,5.84974516 8.60406698,9.34765673 C8.60754164,12.8455683 6.90859981,14.6192924 3.50724147,14.6688291" id="Path-15" stroke="#4A90E2" stroke-width="3" transform="translate(8.530079, 8.049759) rotate(123.000000) translate(-8.530079, -8.049759) "></path>
                                    <path d="M98.6066562,103.083278 C95.3013062,104.8618 93.6504182,107.498592 93.6539923,110.993656 C93.6575664,114.48872 91.9572892,116.26095 88.5531605,116.310347" id="Path-15" stroke="#F1606F" stroke-width="3" transform="translate(93.579908, 109.696813) rotate(145.000000) translate(-93.579908, -109.696813) "></path>
                                    <path d="M152.617062,62.8656022 C149.314354,64.6456696 147.664737,67.284659 147.668212,70.7825706 C147.671686,74.2804822 145.972745,76.0542063 142.571386,76.103743" id="Path-15" stroke="#6058E5" stroke-width="3" transform="translate(147.594224, 69.484673) rotate(123.000000) translate(-147.594224, -69.484673) "></path>
                                    <path d="M88.558991,1.9194284 C85.2536409,3.69794978 83.602753,6.33474231 83.6063271,9.82980598 C83.6099012,13.3248697 81.9096239,15.0970999 78.5054953,15.1464967" id="Path-15" stroke="#F5A623" stroke-width="3" transform="translate(83.532243, 8.532963) rotate(145.000000) translate(-83.532243, -8.532963) "></path>
                                    <path d="M225.19654,278.341611 C222.587791,279.8419 221.282766,282.062262 221.281467,285.002698 C221.280167,287.943135 219.937212,289.43619 217.252602,289.481863" id="Path-15" stroke="#4A90E2" stroke-width="1.60000002" transform="translate(221.224571, 283.911737) rotate(78.000000) translate(-221.224571, -283.911737) "></path>
                                    <path d="M155.182981,252.94223 C152.575525,254.440435 151.272344,256.659797 151.273437,259.600317 C151.27453,262.540836 149.932828,264.032839 147.24833,264.076326" id="Path-15" stroke="#F1606F" stroke-width="1.60000002" transform="translate(151.215655, 258.509278) rotate(100.000000) translate(-151.215655, -258.509278) "></path>
                                    <path d="M252.24544,184.670042 C249.63669,186.17033 248.331666,188.390692 248.330366,191.331129 C248.329066,194.271565 246.986111,195.76462 244.301501,195.810294" id="Path-15" stroke="#6058E5" stroke-width="1.60000002" transform="translate(248.273470, 190.240168) rotate(78.000000) translate(-248.273470, -190.240168) "></path>
                                    <path d="M39.031825,79.8879745 C36.4243698,81.3861789 35.1211886,83.6055411 35.1222816,86.5460609 C35.1233745,89.4865808 33.7816722,90.9785838 31.0971745,91.0220699" id="Path-15" stroke="#F5A623" stroke-width="1.60000002" transform="translate(35.064500, 85.455022) rotate(100.000000) translate(-35.064500, -85.455022) "></path>
                                    <path d="M112.236357,168.802395 C109.622476,170.300729 108.314465,172.517468 108.312327,175.45261 C108.310189,178.387753 106.964387,179.878505 104.274921,179.924865" id="Path-15" stroke="#4A90E2" stroke-width="1.60000002" transform="translate(108.255639, 174.363630) rotate(201.000000) translate(-108.255639, -174.363630) "></path>
                                    <path d="M207.70306,206.906085 C205.089178,208.40442 203.781168,210.621158 203.77903,213.5563 C203.776892,216.491443 202.43109,217.982194 199.741624,218.028555" id="Path-15" stroke="#6058E5" stroke-width="1.60000002" transform="translate(203.722342, 212.467320) rotate(201.000000) translate(-203.722342, -212.467320) "></path>
                                    <path d="M209.293249,81.4759465 C206.680744,82.9763108 205.372898,85.19514 205.36971,88.1324341 C205.366523,91.0697282 204.021172,92.5620519 201.333659,92.6094053" id="Path-15" stroke="#F5A623" stroke-width="1.60000002" transform="translate(205.313454, 87.042676) rotate(223.000000) translate(-205.313454, -87.042676) "></path>
                                </g>
                            </g>
                            <g id="Group-10-Copy-2" filter="url(#filter-3)" transform="translate(692.000000, 0.000000)">
                                <polygon id="Fill-1" fill="#E3EDFC" transform="translate(44.613432, 57.322089) rotate(10.000000) translate(-44.613432, -57.322089) " points="6.05071722 94.6856862 83.0372484 94.5437678 83.1761473 19.9584911 6.18961613 20.1004096"></polygon>
                                <polygon id="Fill-2" fill="#FFFFFF" transform="translate(31.095447, 55.701202) rotate(10.000000) translate(-31.095447, -55.701202) " points="17.5320308 82.4795277 44.5592173 82.4297053 44.6588622 28.9228764 17.6316757 28.9726988"></polygon>
                                <g id="Group-9" transform="translate(47.043876, 43.260696) rotate(10.000000) translate(-47.043876, -43.260696) translate(8.543876, 6.260696)">
                                    <polygon id="Stroke-3" stroke="#C3DBFF" fill="#FFFFFF" points="0.0658792259 15.0399908 76.8086962 15.0399908 76.8086962 0.533076358 0.0658792259 0.533076358"></polygon>
                                    <path d="M67.5574159,35.4206279 C67.5574159,40.6868467 63.2838757,44.9561133 58.0123853,44.9561133 C52.7423777,44.9561133 48.4688375,40.6868467 48.4688375,35.4206279 C48.4688375,30.1544091 52.7423777,25.8851425 58.0123853,25.8851425 C63.2838757,25.8851425 67.5574159,30.1544091 67.5574159,35.4206279" id="Fill-5" fill="#F35E6D"></path>
                                    <polygon id="Fill-6" fill="#FFFFFF" points="57.2571757 39.1731977 52.8427659 33.495162 56.8434638 35.166131 66.042993 27.1282961"></polygon>
                                    <path d="M67.5574159,63.7154068 C67.5574159,68.9816256 63.2838757,73.2508921 58.0123853,73.2508921 C52.7423777,73.2508921 48.4688375,68.9816256 48.4688375,63.7154068 C48.4688375,58.4477066 52.7423777,54.1799214 58.0123853,54.1799214 C63.2838757,54.1799214 67.5574159,58.4477066 67.5574159,63.7154068" id="Fill-7" fill="#F35E6D"></path>
                                    <polygon id="Fill-8" fill="#FFFFFF" points="57.2571757 67.4679765 52.8427659 61.7899409 56.8434638 63.4609099 66.042993 55.423075"></polygon>
                                </g>
                            </g>
                            <g id="Group-7-Copy" filter="url(#filter-4)" transform="translate(374.000000, 0.000000)">
                                <path d="M79.7691935,76.6066846 C92.5464932,100.860376 90.5048633,118.631163 73.6443037,129.919046 C57.4167963,140.78311 18.7542385,142.199854 6.36562409,123.31595 C-9.7740432,98.714334 11.5559347,58.5887531 32.1296152,54.1516726 C82.4517302,43.2988125 78.2882656,-9.48557838 33.6472058,2.16455783" id="Path-32" stroke="#F0C8B4" stroke-dasharray="9"></path>
                                <g id="Path-26">
                                    <use fill="black" fill-opacity="1" filter="url(#filter-6)" xlink:href="#path-5"></use>
                                    <use stroke="#39445B" stroke-width="2" fill="#FFFFFF" fill-rule="evenodd" xlink:href="#path-5"></use>
                                </g>
                            </g>
                            <text id="4.-Download-complian-Copy" font-family="AvenirNext-Bold, Avenir Next" font-size="18" font-weight="bold" line-spacing="26">
                                <tspan x="1048" y="262" fill="#F35E6D">4. </tspan>
                                <tspan x="1069.528" y="262" font-family="AvenirNext-DemiBold, Avenir Next" font-weight="500" fill="#39445B">Download </tspan>
                                <tspan x="1048" y="288" font-family="AvenirNext-DemiBold, Avenir Next" font-weight="500" fill="#39445B">compliance </tspan>
                                <tspan x="1148.818" y="288" font-family="AvenirNext-DemiBold, Avenir Next" font-weight="500" fill="#F1606F">reports</tspan>
                            </text>
                            <text id="3.-Make-one-payment" font-family="AvenirNext-Bold, Avenir Next" font-size="20" font-weight="bold" line-spacing="26">
                                <tspan x="808" y="29" fill="#F35E6D">3. </tspan>
                                <tspan x="833.4" y="29.2001953" font-family="AvenirNext-DemiBold, Avenir Next" font-weight="500" fill="#39445B">Make one payment to  platform, </tspan>
                                <tspan x="809.48" y="55.2001953" font-family="AvenirNext-DemiBold, Avenir Next" font-weight="500" fill="#39445B">     regardless of the number of  </tspan>
                                <tspan x="809.48" y="81.2001953" font-family="AvenirNext-DemiBold, Avenir Next" font-weight="500" fill="#39445B">     countries where you are.</tspan>
                            </text>
                            <text id="2.-Click-to-run-payr-Copy" font-family="AvenirNext-Bold, Avenir Next" font-size="18" font-weight="bold" line-spacing="26">
                                <tspan x="155.626" y="43" fill="#F35E6D">2. </tspan>
                                <tspan x="177.154" y="43" font-family="AvenirNext-DemiBold, Avenir Next" font-weight="500" fill="#39445B">Click to run payroll  in </tspan>
                                <tspan x="251.35" y="69" font-family="AvenirNext-DemiBold, Avenir Next" font-weight="500" fill="#39445B">each country</tspan>
                            </text>
                            <text id="1.-Hire-and-onboard-Copy" font-family="AvenirNext-Bold, Avenir Next" font-size="18" font-weight="bold" line-spacing="26">
                                <tspan x="36.174" y="255" fill="#F35E6D">1. </tspan>
                                <tspan x="57.702" y="255" font-family="AvenirNext-DemiBold, Avenir Next" font-weight="500" fill="#39445B">Hire and </tspan>
                                <tspan x="57.27" y="281" font-family="AvenirNext-DemiBold, Avenir Next" font-weight="500" fill="#39445B">onboard</tspan>
                            </text>
                        </g>
                        <g id="Group-11-Copy" filter="url(#filter-7)" transform="translate(172.000000, 219.000000)">
                            <g id="Group-9" transform="translate(61.883449, 42.787112) rotate(-6.000000) translate(-61.883449, -42.787112) translate(3.883449, 6.287112)">
                                <path d="M2.24363237,72.2321138 L113.027017,72.2321138 C114.131587,72.2321138 115.027017,71.3366833 115.027017,70.2321138 L115.027017,2.24936225 C115.027017,1.14479275 114.131587,0.249362246 113.027017,0.249362246 L2.24363237,0.249362246 C1.13906287,0.249362246 0.24363237,1.14479275 0.24363237,2.24936225 L0.24363237,70.2321138 C0.24363237,71.3366833 1.13906287,72.2321138 2.24363237,72.2321138 Z" id="Stroke-1" stroke="#F35E6D" stroke-width="1.091" fill="#FFFFFF"></path>
                                <polygon id="Fill-3" fill="#F35E6D" points="46.3008328 19.6441106 104.872674 19.6441106 104.872674 15.871272 46.3008328 15.871272"></polygon>
                                <polygon id="Fill-4" fill="#F35E6D" points="46.3008328 30.974823 104.872674 30.974823 104.872674 27.2019844 46.3008328 27.2019844"></polygon>
                                <polygon id="Fill-5" fill="#F35E6D" points="46.3008328 42.3055354 104.872674 42.3055354 104.872674 38.530664 46.3008328 38.530664"></polygon>
                                <polygon id="Fill-6" fill="#F35E6D" points="46.3008328 53.6362478 104.872674 53.6362478 104.872674 49.8613765 46.3008328 49.8613765"></polygon>
                                <path d="M22.7426345,34.7586386 L28.6585728,20.8686569 C36.2520443,24.1251695 39.8319974,33.0734644 36.5863353,40.6923217 C33.3406733,48.3132117 24.4221937,51.9051329 16.8287223,48.6486203 C9.23525077,45.3921077 5.6552977,36.4417799 8.89893373,28.8229227 C11.0930985,23.6759252 15.9636176,20.1551513 21.5250048,19.7038743 L22.7426345,34.7586386 Z" id="Fill-7" fill="#F35E6D"></path>
                            </g>
                        </g>
                    </g>
                </g>
            </g>
        </g>
    </g>
</svg>