<?xml version="1.0" encoding="UTF-8"?>
<svg width="100%" height="auto" viewBox="0 0 56 51" version="1.1" xmlns="http://www.w3.org/2000/svg" xmlns:xlink="http://www.w3.org/1999/xlink">
    <!-- Generator: Sketch 53.1 (72631) - https://sketchapp.com -->
    <title>approved</title>
    <desc>Created with Sketch.</desc>
    <g id="Page-2" stroke="none" stroke-width="1" fill="none" fill-rule="evenodd">
        <g id="Rose" transform="translate(-847.000000, -710.000000)" fill="#F1606F" fill-rule="nonzero">
            <g id="approved" transform="translate(847.000000, 710.000000)">
                <path d="M34.3620518,7.61633087 C33.2550999,7.61633087 32.1426165,7.70039007 31.055513,7.86592204 C30.167381,8.00138668 29.5577765,8.82629843 29.6939492,9.7087584 C29.8301218,10.5912184 30.6608238,11.1961213 31.5486305,11.0616266 C32.4732053,10.9206658 33.4197436,10.8493771 34.3620518,10.8493771 C44.4991865,10.8493771 52.7463359,19.0438561 52.7463359,29.11625 C52.7463359,33.5891695 51.1190971,37.6907736 48.4229762,40.8699897 C47.2299606,38.831554 45.6004442,37.0732618 43.6226056,35.7094012 C42.4683105,34.9134253 41.2281144,34.2781317 39.9298375,33.8078851 C41.4116302,32.3686946 42.3339274,30.3630743 42.3339274,28.1464978 L42.3339274,26.5703878 C42.3339274,22.2025423 38.7578091,18.6492628 34.3620518,18.6492628 C29.9662945,18.6492628 26.3901761,22.2025423 26.3901761,26.5703878 L26.3901761,28.1464978 C26.3901761,30.3630743 27.3123107,32.3686946 28.7942661,33.8078851 C27.4961519,34.2781317 26.2559558,34.9134253 25.101498,35.7094012 C23.1142233,37.0798896 21.4781992,38.8480425 20.2837194,40.8987638 C18.2294158,38.4731708 16.7935021,35.4897158 16.2317289,32.1614563 C16.0831917,31.2812595 15.2435417,30.6873489 14.3581754,30.8346141 C13.4719957,30.9822027 12.874105,31.815682 13.0226422,32.6962021 C13.8592011,37.652462 16.4487591,42.1890725 20.3144681,45.4701295 C24.2241036,48.7886898 29.2130336,50.6163309 34.3618891,50.6163309 C46.2931839,50.6163309 56,40.9715073 56,29.1164117 C56,17.2613161 46.2933466,7.61633087 34.3620518,7.61633087 Z M29.6440029,26.5702261 C29.6440029,23.985244 31.7606173,21.8821474 34.3620518,21.8821474 C36.9634863,21.8821474 39.0801007,23.985244 39.0801007,26.5702261 L39.0801007,28.1463362 C39.0801007,30.7311566 36.9634863,32.8342532 34.3620518,32.8342532 C31.7606173,32.8342532 29.6440029,30.7311566 29.6440029,28.1463362 L29.6440029,26.5702261 Z M34.3620518,47.383123 C29.9573465,47.383123 25.8851822,45.854862 22.6980589,43.2638988 C24.8826782,38.8585499 29.3487182,36.0672995 34.3620518,36.0672995 C39.3649732,36.0672995 43.8225532,38.8470726 46.0120533,43.2364179 C42.8384333,45.8262496 38.7797724,47.383123 34.3620518,47.383123 Z" id="Shape"></path>
                <path d="M19.5108622,10.1073012 C18.8583445,9.45267408 17.8011556,9.45267408 17.1488049,10.1073012 L11.7098769,15.5680052 L9.8511951,13.7018818 C9.19867739,13.0472546 8.14148847,13.0472546 7.48913777,13.7018818 C6.83695408,14.3568443 6.83695408,15.4186013 7.48913777,16.0733961 L10.5287647,19.1251928 C10.85494,19.4525064 11.2821579,19.6163309 11.7097098,19.6163309 C12.1372618,19.6163309 12.5644797,19.4525064 12.890822,19.1253605 L19.5108622,12.4788156 C20.1630459,11.823853 20.1630459,10.7620961 19.5108622,10.1073012 Z" id="Path"></path>
                <path d="M13.5,0.61633087 C6.05606707,0.61633087 0,6.67239794 0,14.1163309 C0,21.5602638 6.05606707,27.6163309 13.5,27.6163309 C20.9439329,27.6163309 27,21.5602638 27,14.1163309 C27,6.67239794 20.9439329,0.61633087 13.5,0.61633087 Z M13.5,24.3236479 C7.87165244,24.3236479 3.29268293,19.7446784 3.29268293,14.1163309 C3.29268293,8.48798331 7.87165244,3.9090138 13.5,3.9090138 C19.1283476,3.9090138 23.7073171,8.48798331 23.7073171,14.1163309 C23.7073171,19.7446784 19.1283476,24.3236479 13.5,24.3236479 Z" id="Shape"></path>
            </g>
        </g>
    </g>
</svg>