<?xml version="1.0" encoding="UTF-8"?>
<svg width="100%" height="auto" viewBox="0 0 70 50" version="1.1" xmlns="http://www.w3.org/2000/svg" xmlns:xlink="http://www.w3.org/1999/xlink">
    <!-- Generator: Sketch 53.1 (72631) - https://sketchapp.com -->
    <title>Group 14</title>
    <desc>Created with Sketch.</desc>
    <g id="Page-2" stroke="none" stroke-width="1" fill="none" fill-rule="evenodd">
        <g id="Rose" transform="translate(-530.000000, -714.000000)" fill="#F1606F">
            <g id="Group-14" transform="translate(530.000000, 714.000000)">
                <polygon id="Fill-1" points="28.5714286 20.1221996 30.7142857 20.1221996 30.7142857 17.9793424 28.5714286 17.9793424"></polygon>
                <polygon id="Fill-2" points="32.8571429 20.1221996 35 20.1221996 35 17.9793424 32.8571429 17.9793424"></polygon>
                <polygon id="Fill-3" points="37.8571429 20.1221996 40 20.1221996 40 17.9793424 37.8571429 17.9793424"></polygon>
                <g id="Group-13" transform="translate(0.000000, 0.122200)">
                    <path d="M26.3249025,22.3260073 L66.9649956,22.3260073 L66.9649956,15.5860806 L26.3249025,15.5860806 L26.3249025,22.3260073 Z M26.3249025,47.039072 L66.9649956,47.039072 L66.9649956,24.5726496 L26.3249025,24.5726496 L26.3249025,47.039072 Z M7.90224033,26.959707 C4.78988653,26.959707 2.25778295,24.4400977 2.25778295,21.3431013 C2.25778295,18.246105 4.78988653,15.7264957 7.86385802,15.7253724 L9.29416351,15.730989 L9.1101542,14.4492796 C9.05596741,14.0718437 9.0311318,13.7640537 9.0311318,13.4798535 C9.0311318,9.76278388 12.0689788,6.73992674 15.8044807,6.73992674 C18.7689497,6.73992674 21.3642712,8.62822955 22.2617399,11.4365324 L24.413407,10.7569231 C23.9279837,9.23819292 23.0576084,7.93626374 21.9467792,6.90730159 C23.8071923,4.0203663 26.9917952,2.24664225 30.4800698,2.24664225 C36.0827582,2.24664225 40.6400931,6.78148962 40.6400931,12.3565324 C40.6400931,12.6845421 40.6227364,13.0133944 40.590563,13.3394383 L24.0671196,13.3394383 L24.0671196,26.959707 L7.90224033,26.959707 Z M51.160515,13.3394383 L48.902732,13.3394383 L42.8467937,13.3394383 C42.875016,13.0128327 42.8978761,12.6846825 42.8978761,12.3565324 C42.8978761,5.54358974 37.3267966,0 30.4800698,0 C26.2591446,0 22.4005935,2.12420024 20.1157172,5.58964591 C18.8231365,4.89206349 17.3555775,4.49328449 15.8044807,4.49328449 C10.8249404,4.49328449 6.77334885,8.524884 6.77334885,13.4798535 L6.77334885,13.5596093 C2.94866453,14.1066667 0,17.3878877 0,21.3431013 C0,25.6779976 3.54584812,29.2063492 7.90224033,29.2063492 L24.0671196,29.2063492 L24.0671196,49.2857143 L69.2227786,49.2857143 L69.2227786,29.0659341 L69.2227786,26.8192918 L69.2227786,13.3394383 L51.160515,13.3394383 Z" id="Fill-4"></path>
                    <path d="M30.9544582,42.5457875 C31.4793928,39.9857387 33.7586247,38.0525031 36.4848976,38.0525031 L38.7426805,38.0525031 C41.4689534,38.0525031 43.7493142,39.9857387 44.2731199,42.5457875 L30.9544582,42.5457875 Z M37.6137891,29.0659341 C39.4809756,29.0659341 41.0004635,30.5779243 41.0004635,32.4358974 C41.0004635,34.2938706 39.4809756,35.8058608 37.6137891,35.8058608 C35.7466026,35.8058608 34.2271146,34.2938706 34.2271146,32.4358974 C34.2271146,30.5779243 35.7466026,29.0659341 37.6137891,29.0659341 L37.6137891,29.0659341 Z M46.6449209,43.6691087 C46.6449209,40.3519414 44.5666317,37.5144322 41.640545,36.3607814 C42.638485,35.3475458 43.2582464,33.9636142 43.2582464,32.4358974 C43.2582464,29.3389011 40.726284,26.8192918 37.6137891,26.8192918 C34.5014353,26.8192918 31.9693317,29.3389011 31.9693317,32.4358974 C31.9693317,33.9636142 32.5890931,35.3475458 33.5870332,36.3607814 C30.6609465,37.5144322 28.5826573,40.3519414 28.5826573,43.6691087 L28.5826573,44.7924298 L46.6449209,44.7924298 L46.6449209,43.6691087 Z" id="Fill-6"></path>
                    <polygon id="Fill-7" points="48.902732 29.0659341 64.7072127 29.0659341 64.7072127 26.8192918 48.902732 26.8192918"></polygon>
                    <polygon id="Fill-8" points="48.902732 33.5592186 64.7072127 33.5592186 64.7072127 31.3125763 48.902732 31.3125763"></polygon>
                    <polygon id="Fill-9" points="48.902732 38.0525031 64.7072127 38.0525031 64.7072127 35.8058608 48.902732 35.8058608"></polygon>
                    <polygon id="Fill-10" points="62.4494297 42.5457875 64.7072127 42.5457875 64.7072127 40.2991453 62.4494297 40.2991453"></polygon>
                    <polygon id="Fill-11" points="57.9338638 42.5457875 60.1916468 42.5457875 60.1916468 40.2991453 57.9338638 40.2991453"></polygon>
                    <polygon id="Fill-12" points="53.4182979 42.5457875 55.6760809 42.5457875 55.6760809 40.2991453 53.4182979 40.2991453"></polygon>
                </g>
            </g>
        </g>
    </g>
</svg>