<?xml version="1.0" encoding="UTF-8"?>
<svg width="100%" height="auto" viewBox="0 0 53 45" version="1.1" xmlns="http://www.w3.org/2000/svg" xmlns:xlink="http://www.w3.org/1999/xlink">
    <!-- Generator: Sketch 53.1 (72631) - https://sketchapp.com -->
    <title>laptop</title>
    <desc>Created with Sketch.</desc>
    <g id="Page-2" stroke="none" stroke-width="1" fill="none" fill-rule="evenodd">
        <g id="Rose" transform="translate(-226.000000, -713.000000)" fill="#F1606F" fill-rule="nonzero" stroke="#F1606F">
            <g id="laptop" transform="translate(227.000000, 714.000000)">
                <path d="M4.1025641,38.0227273 L31.1794872,38.0227273 C31.6326439,38.0227273 32,37.6428476 32,37.1742424 C32,36.7056372 31.6326439,36.3257576 31.1794872,36.3257576 L4.1025641,36.3257576 C2.74309395,36.3257576 1.64102564,35.1861187 1.64102564,33.780303 L1.64102564,32.0833333 L4.1025641,32.0833333 L4.1025641,33.780303 C4.1025641,34.2489082 4.46992021,34.6287879 4.92307692,34.6287879 C5.37623364,34.6287879 5.74358974,34.2489082 5.74358974,33.780303 L5.74358974,32.0833333 L7.38461538,32.0833333 L7.38461538,33.780303 C7.38461538,34.2489082 7.75197149,34.6287879 8.20512821,34.6287879 C8.65828488,34.6287879 9.02564103,34.2489082 9.02564103,33.780303 L9.02564103,32.0833333 L18.8717949,32.0833333 L19.7833846,33.026 C20.2441671,33.5097024 20.873663,33.7815201 21.5302564,33.780303 L29.5384615,33.780303 C29.9916182,33.780303 30.3589744,33.4004234 30.3589744,32.9318182 C30.3589744,32.463213 29.9916182,32.0833333 29.5384615,32.0833333 L21.5302564,32.0833333 C21.313486,32.0818354 21.1064432,31.9900778 20.9558974,31.8287879 L20.0205128,30.8649091 C19.7112691,30.5587253 19.2999303,30.3873653 18.8717949,30.3863636 L4.92307692,30.3863636 L4.92307692,10.8712121 C4.92307692,10.4026069 4.55572082,10.0227273 4.1025641,10.0227273 C3.64940738,10.0227273 3.28205128,10.4026069 3.28205128,10.8712121 L3.28205128,30.3863636 L1.64102564,30.3863636 C0.734712205,30.3863636 0,31.1461228 0,32.0833333 L0,33.780303 C0.00271271385,36.1221664 1.83790511,38.0199221 4.1025641,38.0227273 Z" id="Shape"></path>
                <path d="M3.85714286,7.60167464 C4.33052979,7.60167464 4.71428571,7.22465127 4.71428571,6.75956938 L4.71428571,1.7069378 L49.2857143,1.7069378 L49.2857143,31.180622 C49.2857143,31.6457039 49.6694703,32.0227273 50.1428571,32.0227273 C50.616244,32.0227273 51,31.6457039 51,31.180622 L51,1.7069378 C51,0.77677401 50.2324881,0.0227272727 49.2857143,0.0227272727 L4.71428571,0.0227272727 C3.76751186,0.0227272727 3,0.77677401 3,1.7069378 L3,6.75956938 C3,7.22465127 3.38375593,7.60167464 3.85714286,7.60167464 Z" id="Shape"></path>
                <path d="M26.958099,5.02273366 C22.0811597,5.01918001 17.6914892,7.97853589 15.8675348,12.4995879 C14.0435803,17.02064 15.1514308,22.1959601 18.6665348,25.5751071 C22.1816386,28.9542541 27.3984734,29.8589936 31.8469413,27.8609442 L34.7488379,38.0677559 C34.9335982,38.7090171 35.426074,39.2159746 36.0619036,39.4194337 C36.6977332,39.6228927 37.3931916,39.496062 37.9161727,39.0812708 L40.2957279,37.1924476 L44.8909665,42.3538661 C45.256889,42.7635159 45.7748521,43.0052706 46.3239913,43.0227177 L46.3854432,43.0227177 C46.9133366,43.0223629 47.4198633,42.8142626 47.7954236,42.4434444 L49.4170717,40.8378594 C50.1600832,40.0959217 50.1974676,38.9042496 49.5024216,38.1172373 L45.2289521,33.2783008 L46.5365126,32.2374858 C47.0837072,31.804924 47.3633318,31.1168276 47.2729058,30.4253791 C47.1824798,29.7339306 46.7352996,29.1408011 46.0952536,28.8633684 L36.1989327,24.5363082 C37.9584273,22.4066396 38.9165558,19.72849 38.907085,16.966512 C38.9000289,10.373069 33.5544168,5.02978673 26.958099,5.02273366 L26.958099,5.02273366 Z M45.5797402,30.6498164 C45.5943453,30.7479166 45.5540572,30.8461377 45.4747598,30.9057545 L43.4630627,32.5028083 C43.2794446,32.6482979 43.1637402,32.862844 43.1430798,33.0961398 C43.1224194,33.3294357 43.1986203,33.5609618 43.3538148,33.73643 L48.2255871,39.25019 C48.3228724,39.3603713 48.3172562,39.5272859 48.2127846,39.6306846 L46.5911365,41.2354166 C46.5334519,41.2915491 46.4556919,41.322271 46.3752013,41.3207293 C46.2944752,41.3189451 46.2181189,41.283719 46.164387,41.2234728 L41.0322975,35.4588935 C40.7314401,35.120565 40.2186049,35.0760063 39.8638574,35.3573714 L36.8527129,37.746127 C36.7757461,37.8087848 36.6720783,37.8277715 36.5778862,37.7964615 C36.4863046,37.7684306 36.4152505,37.6958006 36.3892629,37.6036548 L32.9453945,25.4815729 C32.9104485,25.3783701 32.9446987,25.2643664 33.0307444,25.1974816 C33.115553,25.1190187 33.2396188,25.1000959 33.3439785,25.1497065 L34.4407247,25.630017 L45.4107474,30.4280034 C45.5034511,30.4654473 45.5682753,30.5505329 45.5797402,30.6498164 L45.5797402,30.6498164 Z M34.0284847,23.5867778 C33.3225396,23.2750782 32.500033,23.3986058 31.9168952,23.9039053 C31.3337576,24.4092049 31.0947352,25.2055119 31.3032624,25.9482334 L31.3698353,26.1845496 C26.6124066,28.4513375 20.9106094,26.7392726 18.1904281,22.2272006 C15.4702468,17.7151287 16.6197999,11.876207 20.8475603,8.7308374 C25.0753207,5.58546787 31.0009566,6.16058968 34.5443591,10.0602015 C38.0877614,13.9598133 38.0920362,19.9107217 34.5542401,23.8154158 L34.0284847,23.5867778 Z" id="Shape"></path>
                <path d="M29.4,13.6060606 C29.4,14.0662979 29.7581722,14.4393939 30.2,14.4393939 C30.6418278,14.4393939 31,14.0662979 31,13.6060606 C30.9193916,11.7409393 29.574755,10.2002099 27.8,9.93939394 L27.8,9.85606061 C27.8,9.39582336 27.4418278,9.02272727 27,9.02272727 C26.5581722,9.02272727 26.2,9.39582336 26.2,9.85606061 L26.2,9.93939394 C24.425245,10.2002099 23.0806084,11.7409393 23,13.6060606 C23.0772938,15.4738749 24.4228066,17.0184114 26.2,17.2793939 L26.2,21.3918939 C25.3103898,21.1820244 24.6593294,20.3875271 24.6,19.4393939 C24.6,18.9791567 24.2418278,18.6060606 23.8,18.6060606 C23.3581722,18.6060606 23,18.9791567 23,19.4393939 C23.0772938,21.3072083 24.4228066,22.8517448 26.2,23.1127273 L26.2,23.1893939 C26.2,23.6496312 26.5581722,24.0227273 27,24.0227273 C27.4418278,24.0227273 27.8,23.6496312 27.8,23.1893939 L27.8,23.1102273 C29.576338,22.8494241 30.9215802,21.3062491 31,19.4393939 C30.9220757,17.5718497 29.5768743,16.0276706 27.8,15.7660606 L27.8,11.6543939 C28.6891974,11.8644227 29.3400713,12.6583534 29.4,13.6060606 L29.4,13.6060606 Z M24.6,13.6060606 C24.6589049,12.6574036 25.3099963,11.8621904 26.2,11.6518939 L26.2,15.5610606 C25.3097273,15.3506753 24.6585633,14.5550342 24.6,13.6060606 Z M29.4,19.4393939 C29.3413538,20.3881603 28.6901481,21.183513 27.8,21.3935606 L27.8,17.4852273 C28.6900037,17.6955237 29.3410951,18.4907369 29.4,19.4393939 L29.4,19.4393939 Z" id="Shape"></path>
            </g>
        </g>
    </g>
</svg>