<?xml version="1.0" encoding="UTF-8"?>
<svg width="100%" height="auto" viewBox="0 0 51 51" version="1.1" xmlns="http://www.w3.org/2000/svg" xmlns:xlink="http://www.w3.org/1999/xlink">
    <!-- Generator: Sketch 53.1 (72631) - https://sketchapp.com -->
    <title>Fill 1</title>
    <desc>Created with Sketch.</desc>
    <g id="Page-2" stroke="none" stroke-width="1" fill="none" fill-rule="evenodd">
        <g id="Rose" transform="translate(-1159.000000, -710.000000)" fill="#F1606F" stroke="#F1606F">
            <path d="M1177.90496,728.025656 C1178.3318,727.785441 1179.32252,727.750317 1180.04584,727.724669 C1180.33572,727.714429 1180.60963,727.704667 1180.85424,727.684186 C1180.98335,727.673372 1181.12671,727.675382 1181.26194,727.685909 C1181.20155,727.840949 1181.18193,728.011109 1181.20815,728.17993 C1181.25419,728.476898 1181.43727,728.734819 1181.70217,728.876556 C1181.88171,728.972642 1182.13159,729.139262 1182.39612,729.315644 C1183.14404,729.814259 1183.99187,730.379388 1184.78831,730.430111 C1185.51259,730.477101 1185.9156,730.064332 1186.08825,729.888525 C1186.10203,729.874552 1186.11504,729.860579 1186.12882,729.847851 C1186.22606,729.768608 1186.31717,729.662377 1186.38493,729.53423 C1186.53795,729.577967 1186.69874,729.621512 1186.86354,729.666206 C1187.43019,729.819618 1188.48494,730.105197 1188.71798,730.352112 C1189.13189,730.790913 1189.45451,731.626117 1189.73922,732.362938 C1189.88306,732.735321 1190.01896,733.086744 1190.17142,733.412614 C1190.23688,733.552437 1190.30129,733.696471 1190.36675,733.842323 C1190.80832,734.827303 1191.30885,735.94378 1192.37068,736.637822 C1192.85216,736.952591 1193.44236,737.04303 1193.96318,737.122943 C1194.02615,737.132609 1194.09831,737.14371 1194.17162,737.155769 C1193.8625,737.587009 1193.42236,737.996811 1192.95734,738.42987 C1191.77263,739.533139 1190.29823,740.906293 1190.97724,743.09685 C1191.29775,744.131309 1191.31268,744.243091 1190.79732,744.803626 C1190.72707,744.880093 1190.66161,744.949765 1190.60026,745.015035 C1190.15888,745.484939 1189.81023,745.856077 1189.52159,746.76526 C1189.43776,747.029306 1189.32914,747.151615 1189.13189,747.373743 C1188.97417,747.551273 1188.77769,747.77254 1188.59653,748.082619 C1188.37947,748.454236 1188.3077,748.81188 1188.25018,749.099277 C1188.19343,749.382081 1188.16127,749.524009 1188.05025,749.660291 C1187.7975,749.970562 1187.32607,750.421134 1186.8421,750.728629 C1186.39229,751.014304 1186.12969,751.053255 1186.0402,751.047896 C1185.93809,750.938507 1185.5682,750.459032 1185.00929,748.800204 C1184.87148,748.390976 1184.68026,747.96988 1184.49536,747.562662 C1184.08776,746.664963 1183.66638,745.736639 1183.87138,745.102221 C1183.89559,745.027381 1183.91952,744.954263 1183.94306,744.882773 C1184.27056,743.884586 1184.57968,742.942002 1184.00699,741.569614 C1183.83262,741.151677 1183.55498,740.846287 1183.31027,740.576786 C1183.15188,740.40251 1182.97244,740.204978 1182.94478,740.091282 C1182.91109,739.952703 1182.91215,739.792496 1182.91339,739.607118 C1182.91664,739.107163 1182.92162,738.351488 1182.17045,737.648068 C1181.1114,736.656771 1179.87644,736.962161 1179.05914,737.164287 C1178.80811,737.226303 1178.57096,737.285064 1178.36079,737.309756 C1177.01636,737.467284 1175.81605,736.960055 1175.06669,735.91727 C1174.28279,734.826538 1174.169,733.358733 1174.76982,732.086834 C1175.06066,731.471365 1175.50004,730.976865 1176.0088,730.404558 C1176.11991,730.279473 1176.23207,730.153336 1176.34423,730.024137 C1176.53086,729.808995 1176.73623,729.517674 1176.95338,729.209221 C1177.21264,728.841241 1177.69537,728.156005 1177.90496,728.025656 L1177.90496,728.025656 Z M1170.10229,722.796131 L1168.97653,724.002282 C1168.92629,724.056163 1168.88236,724.11569 1168.84571,724.17962 L1166.28928,728.642848 L1164.0172,730.267511 C1163.594,730.570125 1163.49006,731.15516 1163.78311,731.58506 L1164.63285,732.831503 C1164.14305,732.904429 1163.70348,732.964531 1163.4112,732.9964 C1163.35503,732.942519 1163.29627,732.887872 1163.23549,732.831407 C1163.00801,732.620094 1162.6919,732.337864 1162.22066,731.925478 C1162.99786,727.115133 1165.31579,722.583382 1168.96131,719.124179 C1169.65937,719.34401 1170.23225,719.864733 1170.51209,720.543941 C1170.82695,721.307846 1170.66598,722.191955 1170.10229,722.796131 L1170.10229,722.796131 Z M1164.525,738.059784 L1168.47112,741.060184 C1168.58779,741.148997 1168.72311,741.209577 1168.86686,741.237618 L1171.24527,741.702355 C1171.54884,741.761691 1171.80207,741.941231 1171.95854,742.208052 C1172.11502,742.474777 1172.14794,742.783421 1172.05166,743.077327 C1171.85356,743.681503 1171.8526,744.320515 1172.04908,744.92517 L1172.35227,745.858087 C1172.53343,746.41556 1172.22699,747.016674 1171.66952,747.197936 L1170.71852,747.506867 C1170.38672,747.614629 1170.13999,747.894466 1170.07444,748.236893 L1169.309,752.232418 C1167.62626,750.692262 1166.14879,748.871981 1164.94954,746.794737 C1163.48643,744.260796 1162.57227,741.558034 1162.16936,738.825125 L1164.525,738.059784 Z M1205.71676,723.257613 C1202.44544,717.591488 1197.16349,713.538541 1190.84383,711.845164 C1184.52436,710.151786 1177.92353,711.020869 1172.25743,714.29211 C1166.59142,717.563351 1162.53839,722.845418 1160.84512,729.165006 C1159.15184,735.484595 1160.02083,742.085647 1163.29205,747.751581 C1166.22641,752.834106 1170.89021,756.696794 1176.42434,758.627899 C1179.04766,759.543207 1181.7862,760 1184.52053,760 C1187.49355,760 1190.46121,759.459658 1193.26636,758.381558 C1193.75971,758.192065 1194.00586,757.638325 1193.81618,757.144974 C1193.62649,756.651622 1193.07275,756.405186 1192.5796,756.595157 C1185.11284,759.465018 1177.02956,758.161057 1170.99041,753.627966 L1171.84782,749.152393 L1172.26097,749.018216 C1173.82217,748.510988 1174.67967,746.828138 1174.17264,745.266831 L1173.86945,744.333818 C1173.7993,744.117911 1173.79968,743.889658 1173.87041,743.673942 C1174.13636,742.863238 1174.04133,741.976067 1173.60961,741.239915 C1173.1779,740.50386 1172.45008,739.987731 1171.61258,739.823982 L1169.45256,739.402026 L1165.28488,736.233187 C1165.03519,736.043312 1164.70836,735.987899 1164.40996,736.084751 L1161.96992,736.877368 C1161.91814,736.004743 1161.91738,735.132215 1161.96657,734.264375 C1162.06284,734.354049 1162.12553,734.415013 1162.1641,734.455017 C1162.21185,734.534546 1162.271,734.607472 1162.34029,734.670637 C1162.53954,734.85209 1162.72004,734.934395 1163.09902,734.934395 C1163.44728,734.9343 1163.96284,734.864915 1164.81412,734.73916 C1165.62147,734.619818 1166.42461,734.485355 1166.43255,734.484015 C1166.7544,734.430134 1167.02649,734.215758 1167.15454,733.915727 C1167.28259,733.615601 1167.2488,733.270973 1167.06496,733.001281 L1165.89154,731.280149 L1167.57228,730.078305 C1167.68425,729.998201 1167.77766,729.894937 1167.84609,729.775499 L1170.45141,725.227191 L1171.50156,724.101909 C1172.57468,722.951745 1172.88093,721.26899 1172.28164,719.81468 C1171.92811,718.95689 1171.31063,718.24275 1170.53831,717.761457 C1171.37476,717.103879 1172.26661,716.496736 1173.21446,715.949599 C1176.69212,713.94174 1180.48732,712.968722 1184.24261,712.931494 L1182.53374,715.075156 L1176.19676,717.296721 C1175.93941,717.386874 1175.73269,717.582683 1175.62876,717.834766 L1173.85902,722.124962 C1173.73336,722.429778 1173.77327,722.777564 1173.96477,723.045917 L1176.54952,726.666571 C1176.17934,727.004309 1175.81902,727.496225 1175.38864,728.107004 C1175.19991,728.374878 1175.02171,728.627823 1174.89854,728.769655 C1174.79145,728.893113 1174.68426,729.013699 1174.57803,729.133137 C1174.02209,729.758559 1173.4473,730.405419 1173.03894,731.26943 C1172.14105,733.170006 1172.32241,735.379034 1173.51219,737.034513 C1174.66264,738.635154 1176.55928,739.448825 1178.58359,739.21081 C1178.91338,739.17205 1179.22088,739.095966 1179.51842,739.022274 C1180.33888,738.819287 1180.59881,738.798998 1180.862,739.045339 C1180.99005,739.165255 1181.00182,739.187937 1180.99923,739.594581 C1180.99741,739.853363 1180.99541,740.17531 1181.0846,740.542907 C1181.22749,741.131005 1181.5968,741.537457 1181.89348,741.863998 C1182.04096,742.026311 1182.19351,742.194079 1182.2405,742.306722 C1182.539,743.02201 1182.40904,743.418127 1182.12422,744.286157 C1182.09982,744.360423 1182.07494,744.43622 1182.04996,744.513932 C1181.61728,745.853302 1182.2204,747.181953 1182.75251,748.353843 C1182.92535,748.734455 1183.08853,749.093726 1183.19543,749.411366 C1184.05589,751.964544 1184.70093,752.549388 1185.21859,752.784818 C1185.48972,752.907989 1185.77032,752.962061 1186.05379,752.961966 C1187.43335,752.96187 1188.87292,751.680974 1189.53423,750.86893 C1189.94958,750.359022 1190.05189,749.848444 1190.12653,749.475488 C1190.16376,749.290014 1190.19305,749.143588 1190.24894,749.047884 C1190.3345,748.901458 1190.43527,748.787954 1190.56284,748.644207 C1190.81942,748.355278 1191.13879,747.995816 1191.3456,747.344171 C1191.50274,746.849192 1191.61692,746.72784 1191.99504,746.32512 C1192.06088,746.255161 1192.13104,746.180321 1192.20635,746.098399 C1193.48102,744.711368 1193.15276,743.651835 1192.80507,742.529998 C1192.51251,741.586075 1193.02423,740.982377 1194.26148,739.830203 C1194.7978,739.330726 1195.35231,738.81431 1195.78096,738.193865 C1195.96854,737.922163 1196.53922,737.095954 1196.18607,736.27702 C1195.83991,735.474067 1194.96011,735.339125 1194.25325,735.230789 C1193.97409,735.187914 1193.55223,735.123218 1193.41795,735.035458 C1192.82584,734.648338 1192.4636,733.840409 1192.11323,733.05899 C1192.04347,732.903472 1191.97466,732.749963 1191.90489,732.600953 C1191.78047,732.335089 1191.65616,732.013429 1191.52456,731.672916 C1191.1764,730.771772 1190.78181,729.750329 1190.11007,729.038295 C1189.50628,728.398517 1188.36808,728.090352 1187.36387,727.818363 C1187.02614,727.726966 1186.70735,727.640641 1186.49709,727.563026 C1186.3209,727.497947 1186.12969,727.486176 1185.94728,727.529051 C1185.45852,727.643608 1185.15361,727.769841 1184.92718,727.951295 C1184.86736,727.999242 1184.69021,728.156674 1184.58647,728.409714 C1184.2361,728.241563 1183.75433,727.920478 1183.45785,727.722851 C1183.45172,727.718735 1183.4455,727.71462 1183.43938,727.710505 C1183.53929,727.310656 1183.44885,726.989762 1183.3541,726.789359 C1182.81951,725.658526 1181.04488,725.747052 1180.6948,725.776816 C1180.49593,725.793468 1180.24433,725.802369 1179.97818,725.811748 C1179.56015,725.826582 1179.09809,725.843234 1178.64092,725.894531 L1178.66446,725.828879 C1179.01148,724.861986 1179.93482,724.212351 1180.9621,724.212351 L1181.50617,724.212351 C1182.03455,724.212351 1182.46311,723.783791 1182.46311,723.255412 C1182.46311,722.727033 1182.03455,722.298473 1181.50617,722.298473 L1180.9621,722.298473 C1179.43698,722.298473 1178.04038,723.101138 1177.25762,724.364519 L1175.83021,722.364987 L1177.23456,718.960909 L1183.42684,716.789971 C1183.59662,716.730444 1183.7463,716.624213 1183.85855,716.483433 L1186.61126,713.030547 C1193.64487,713.69961 1200.26561,717.643168 1204.05947,724.214361 C1205.07,725.964682 1205.81754,727.807357 1206.31452,729.692045 L1205.90884,730.053805 C1205.37931,730.526293 1205.06904,731.203969 1205.05717,731.913228 C1205.05708,731.92098 1205.05689,731.928636 1205.0566,731.936292 L1204.39567,730.118692 C1204.2972,729.847468 1204.15211,729.598735 1203.96472,729.379478 L1202.78576,727.999147 C1202.32868,727.464068 1201.66316,727.157339 1200.95965,727.157339 L1199.51654,727.157339 C1199.00424,727.157339 1198.53606,727.437941 1198.29441,727.889375 C1198.05276,728.340904 1198.07917,728.886222 1198.36332,729.312294 L1198.50936,729.531551 C1197.57683,730.33345 1196.49825,730.975142 1195.34982,731.407913 L1193.37163,727.618725 L1193.37163,726.773376 C1193.37163,726.511914 1193.26464,726.26165 1193.07543,726.081249 L1191.29411,724.380693 C1191.19582,724.286904 1191.07868,724.215126 1190.95054,724.17005 L1189.34703,723.606548 C1188.84813,723.431028 1188.30205,723.693542 1188.12691,724.192062 C1187.95168,724.690773 1188.21381,725.236952 1188.71242,725.412186 L1190.12156,725.907451 L1191.45776,727.182891 L1191.45776,727.853582 C1191.45776,728.00776 1191.49509,728.159737 1191.56648,728.296497 L1194.04299,733.040232 C1194.26569,733.46707 1194.7712,733.662113 1195.22234,733.495206 L1195.94346,733.229342 C1197.61875,732.61148 1199.17153,731.6176 1200.43404,730.355271 C1200.75656,730.032654 1200.80671,729.527435 1200.55358,729.14778 L1200.50266,729.071313 L1200.95965,729.071313 C1201.10253,729.071313 1201.23776,729.133616 1201.33059,729.242335 L1202.50956,730.622666 C1202.54755,730.667168 1202.57693,730.717508 1202.59703,730.772729 L1203.89811,734.350413 C1204.0099,734.657812 1204.27097,734.886735 1204.59005,734.957556 C1204.65895,734.972773 1204.72834,734.980237 1204.79734,734.980237 C1205.04837,734.980237 1205.2927,734.881376 1205.47396,734.699922 L1206.09326,734.080625 C1206.48545,733.688336 1206.75543,733.192018 1206.88443,732.641818 C1207.84223,740.317717 1204.83246,748.258043 1198.4707,753.251373 C1198.05487,753.57753 1197.98232,754.179027 1198.30877,754.594954 C1198.63502,755.01069 1199.23642,755.083233 1199.65234,754.756789 C1204.24532,751.151926 1207.40066,745.9959 1208.53713,740.238474 C1209.68423,734.42554 1208.68269,728.394785 1205.71676,723.257613 L1205.71676,723.257613 Z" id="Fill-1"></path>
        </g>
    </g>
</svg>